<svg width="51" height="51" viewBox="0 0 51 51" fill="none" xmlns="http://www.w3.org/2000/svg">
<g clip-path="url(#clip0_77_147)">
<path d="M-0.0574977 0.851105C-4.60224 5.57083 -3.67208 10.5845 -3.67208 25.8158C-3.67208 38.4643 -5.87939 51.1442 5.67282 54.1293C9.28018 55.0568 41.2428 55.0568 44.8453 54.1245C49.6551 52.8837 53.5685 48.9831 54.1034 42.1818C54.1781 41.2326 54.1781 10.4158 54.101 9.44731C53.5323 2.2027 49.0719 -1.97254 43.1946 -2.81818C41.8476 -3.01333 41.5777 -3.07115 34.6666 -3.0832C10.1525 -3.07115 4.77882 -4.16255 -0.0574977 0.851105Z" fill="url(#paint0_linear_77_147)"/>
<path d="M25.1596 8.84073C18.1964 8.84073 11.5842 8.2218 9.05858 14.6985C8.01536 17.3735 8.16685 20.8475 8.16685 25.8219C8.16685 30.187 8.02686 34.2896 9.05858 36.9435C11.5784 43.424 18.2444 42.8032 25.1558 42.8032C31.8236 42.8032 38.6986 43.4968 41.2549 36.9435C42.3 34.2417 42.1466 30.8194 42.1466 25.8219C42.1466 19.1881 42.5129 14.9054 39.2931 11.6901C36.033 8.43258 31.6242 8.84073 25.1519 8.84073H25.1596ZM23.6369 11.9009C38.1616 11.8779 40.0103 10.2645 38.9901 32.6781C38.6276 40.6053 32.5869 39.7354 25.1615 39.7354C11.6225 39.7354 11.2333 39.3483 11.2333 25.8143C11.2333 12.1232 12.3072 11.9085 23.6369 11.897V11.9009ZM34.2303 14.7196C33.1046 14.7196 32.1918 15.6317 32.1918 16.7565C32.1918 17.8813 33.1046 18.7934 34.2303 18.7934C35.356 18.7934 36.2688 17.8813 36.2688 16.7565C36.2688 15.6317 35.356 14.7196 34.2303 14.7196ZM25.1596 17.1014C20.3404 17.1014 16.4341 21.0066 16.4341 25.8219C16.4341 30.6373 20.3404 34.5406 25.1596 34.5406C29.9788 34.5406 33.8832 30.6373 33.8832 25.8219C33.8832 21.0066 29.9788 17.1014 25.1596 17.1014ZM25.1596 20.1615C32.6482 20.1615 32.6578 31.4824 25.1596 31.4824C17.6729 31.4824 17.6614 20.1615 25.1596 20.1615Z" fill="white"/>
</g>
<defs>
<linearGradient id="paint0_linear_77_147" x1="0.053398" y1="51.0457" x2="53.7943" y2="4.52435" gradientUnits="userSpaceOnUse">
<stop stop-color="#FFDD55"/>
<stop offset="0.5" stop-color="#FF543E"/>
<stop offset="1" stop-color="#C837AB"/>
</linearGradient>
<clipPath id="clip0_77_147">
<rect x="0.15918" y="0.824341" width="50" height="50" rx="25" fill="white"/>
</clipPath>
</defs>
</svg>
